<svg width="26" height="26" viewBox="0 0 26 26" fill="none" xmlns="http://www.w3.org/2000/svg">
<path d="M13.6448 22.6824L21.7633 14.4872C22.8165 13.4122 23.4046 11.966 23.4004 10.4611C23.3963 8.95617 22.8003 7.51326 21.7412 6.44408C21.2216 5.9141 20.6019 5.49273 19.918 5.20448C19.2341 4.91623 18.4997 4.76685 17.7575 4.76503C17.0154 4.76322 16.2803 4.90901 15.595 5.19391C14.9096 5.47881 14.2878 5.89715 13.7657 6.42458L12.9909 7.20848L12.2044 6.41548C11.6856 5.8862 11.0667 5.46537 10.3837 5.17744C9.70075 4.88951 8.96737 4.74024 8.2262 4.7383C7.48504 4.73636 6.75088 4.8818 6.06643 5.16616C5.38198 5.45052 4.7609 5.86812 4.2393 6.39468C2.0449 8.61118 2.0553 12.2135 4.2601 14.4404L12.4202 22.6824C12.7582 23.0243 13.3068 23.0243 13.6448 22.6824ZM14.69 7.33848C15.0913 6.93337 15.5693 6.61218 16.096 6.39362C16.6226 6.17505 17.1876 6.06349 17.7578 6.06543C18.328 6.06736 18.8922 6.18276 19.4174 6.40489C19.9426 6.62703 20.4183 6.95146 20.8169 7.35928C21.6349 8.18523 22.0955 9.29957 22.0994 10.462C22.1033 11.6245 21.6501 12.7419 20.8377 13.5733V13.5759L13.0325 21.4539L5.1831 13.5252C3.4762 11.8014 3.4749 9.01418 5.1636 7.30858C5.56441 6.90422 6.04167 6.58364 6.56757 6.36549C7.09347 6.14735 7.65751 6.036 8.22686 6.03794C8.7962 6.03987 9.35948 6.15505 9.88388 6.37677C10.4083 6.59848 10.8833 6.9223 11.2814 7.32938L12.5294 8.59038C12.5898 8.6515 12.6618 8.70002 12.7412 8.73314C12.8205 8.76625 12.9056 8.7833 12.9916 8.7833C13.0775 8.7833 13.1626 8.76625 13.242 8.73314C13.3213 8.70002 13.3933 8.6515 13.4537 8.59038L14.69 7.33848Z" fill="white"/>
</svg>
