<svg width="24" height="25" viewBox="0 0 24 25" fill="none" xmlns="http://www.w3.org/2000/svg">
<path d="M14.2828 3.61698L6.5098 11.7587C6.37328 11.9017 6.29688 12.0935 6.29688 12.2932C6.29688 12.4929 6.37328 12.6847 6.5098 12.8277L14.2828 20.9725C14.3464 21.0392 14.4224 21.0922 14.5064 21.1284C14.5904 21.1646 14.6806 21.1832 14.7718 21.1832C14.863 21.1832 14.9532 21.1646 15.0372 21.1284C15.1212 21.0922 15.1972 21.0392 15.2608 20.9725C15.3916 20.8357 15.4649 20.6521 15.4649 20.461C15.4649 20.2698 15.3916 20.0862 15.2608 19.9494L7.9513 12.2932L15.2608 4.63852C15.3912 4.50183 15.4641 4.31856 15.4641 4.12775C15.4641 3.93694 15.3912 3.75367 15.2608 3.61698C15.1972 3.55029 15.1212 3.49728 15.0372 3.46109C14.9532 3.4249 14.863 3.40625 14.7718 3.40625C14.6806 3.40625 14.5904 3.4249 14.5064 3.46109C14.4224 3.49728 14.3464 3.55029 14.2828 3.61698Z" fill="white"/>
</svg>
