<svg width="9" height="9" viewBox="0 0 9 9" fill="none" xmlns="http://www.w3.org/2000/svg">
<path d="M3.64395 7.68725L6.55882 4.69701C6.61002 4.64448 6.63867 4.57404 6.63867 4.50069C6.63867 4.42735 6.61002 4.3569 6.55882 4.30438L3.64395 1.31301C3.6201 1.28851 3.59159 1.26905 3.56009 1.25575C3.5286 1.24246 3.49476 1.23561 3.46057 1.23561C3.42639 1.23561 3.39255 1.24246 3.36106 1.25575C3.32956 1.26905 3.30105 1.28851 3.2772 1.31301C3.22814 1.36324 3.20067 1.43067 3.20067 1.50088C3.20067 1.5711 3.22814 1.63853 3.2772 1.68876L6.01826 4.50069L3.2772 7.31207C3.22831 7.36227 3.20094 7.42958 3.20094 7.49966C3.20094 7.56974 3.22831 7.63705 3.2772 7.68725C3.30105 7.71175 3.32956 7.73121 3.36106 7.74451C3.39255 7.7578 3.42639 7.76465 3.46057 7.76465C3.49476 7.76465 3.5286 7.7578 3.56009 7.74451C3.59159 7.73121 3.6201 7.71175 3.64395 7.68725Z" fill="#2D2D2D"/>
</svg>
