<svg width="29" height="29" viewBox="0 0 29 29" fill="none" xmlns="http://www.w3.org/2000/svg">
<g clip-path="url(#clip0_236_2803)">
<path d="M20.1389 9.66665V7.29026C20.1389 6.54975 19.993 5.81649 19.7097 5.13235C19.4263 4.44821 19.0109 3.82658 18.4873 3.30296C17.9637 2.77934 17.3421 2.36398 16.6579 2.0806C15.9738 1.79722 15.2405 1.65137 14.5 1.65137C13.7595 1.65137 13.0262 1.79722 12.3421 2.0806C11.658 2.36398 11.0363 2.77934 10.5127 3.30296C9.98909 3.82658 9.57373 4.44821 9.29035 5.13235C9.00697 5.81649 8.86112 6.54975 8.86112 7.29026V12.9291C8.86112 13.1428 8.94599 13.3477 9.09706 13.4988C9.24813 13.6498 9.45303 13.7347 9.66667 13.7347C9.88032 13.7347 10.0852 13.6498 10.2363 13.4988C10.3874 13.3477 10.4722 13.1428 10.4722 12.9291V11.2778L19.3333 11.2778L18.7637 9.66665H10.4722V7.29026C10.4722 6.22202 10.8966 5.19754 11.6519 4.44219C12.4073 3.68683 13.4318 3.26248 14.5 3.26248C15.5682 3.26248 16.5927 3.68683 17.3481 4.44219C18.1034 5.19754 18.5278 6.22202 18.5278 7.29026V12.8889C18.5278 13.1025 18.6127 13.3074 18.7637 13.4585C18.9148 13.6096 19.1197 13.6944 19.3333 13.6944C19.547 13.6944 19.7519 13.6096 19.903 13.4585C20.054 13.3074 20.1389 13.1025 20.1389 12.8889V11.2778H24.1667V25.7778H4.83334V11.2778H9.09706V9.66665H3.22223V25.8503C3.22223 26.2583 3.38433 26.6497 3.67288 26.9382C3.96142 27.2268 4.35278 27.3889 4.76084 27.3889H24.2392C24.6472 27.3889 25.0386 27.2268 25.3271 26.9382C25.6157 26.6497 25.7778 26.2583 25.7778 25.8503V9.66665H20.1389Z" fill="#2D2D2D"/>
</g>
<defs>
<clipPath id="clip0_236_2803">
<rect width="29" height="29" fill="white"/>
</clipPath>
</defs>
</svg>
