<svg width="37" height="37" viewBox="0 0 37 37" fill="none" xmlns="http://www.w3.org/2000/svg">
<path d="M17.7292 21.583C24.1147 21.583 29.2917 23.9988 29.2917 26.9788V30.833H6.16666V26.9788C6.16666 23.9988 11.3436 21.583 17.7292 21.583ZM27.75 26.9788C27.75 24.8513 23.2637 23.1247 17.7292 23.1247C12.1946 23.1247 7.70832 24.8513 7.70832 26.9788V29.2913H27.75V26.9788ZM17.7292 7.70801C19.1602 7.70801 20.5327 8.2765 21.5446 9.28841C22.5565 10.3003 23.125 11.6728 23.125 13.1038C23.125 14.5349 22.5565 15.9074 21.5446 16.9193C20.5327 17.9312 19.1602 18.4997 17.7292 18.4997C16.2981 18.4997 14.9256 17.9312 13.9137 16.9193C12.9018 15.9074 12.3333 14.5349 12.3333 13.1038C12.3333 11.6728 12.9018 10.3003 13.9137 9.28841C14.9256 8.2765 16.2981 7.70801 17.7292 7.70801ZM17.7292 9.24967C16.707 9.24967 15.7266 9.65574 15.0038 10.3785C14.2811 11.1013 13.875 12.0817 13.875 13.1038C13.875 14.126 14.2811 15.1064 15.0038 15.8291C15.7266 16.5519 16.707 16.958 17.7292 16.958C18.7513 16.958 19.7317 16.5519 20.4545 15.8291C21.1773 15.1064 21.5833 14.126 21.5833 13.1038C21.5833 12.0817 21.1773 11.1013 20.4545 10.3785C19.7317 9.65574 18.7513 9.24967 17.7292 9.24967Z" fill="#2D2D2D"/>
</svg>
