<svg width="19" height="19" viewBox="0 0 19 19" fill="none" xmlns="http://www.w3.org/2000/svg">
<path d="M8.74 13.6798C6.004 13.6798 3.8 11.4758 3.8 8.7398C3.8 6.0038 6.004 3.7998 8.74 3.7998C11.476 3.7998 13.68 6.0038 13.68 8.7398C13.68 11.4758 11.476 13.6798 8.74 13.6798ZM8.74 4.5598C6.422 4.5598 4.56 6.4218 4.56 8.7398C4.56 11.0578 6.422 12.9198 8.74 12.9198C11.058 12.9198 12.92 11.0578 12.92 8.7398C12.92 6.4218 11.058 4.5598 8.74 4.5598Z" fill="#6F6F6F"/>
<path d="M12.4192 11.8818L15.8316 15.2942L15.2942 15.8316L11.8818 12.4192L12.4192 11.8818Z" fill="#6F6F6F"/>
</svg>
